<svg width="172" height="60" viewBox="0 0 172 60" fill="none" xmlns="http://www.w3.org/2000/svg">
<path fill-rule="evenodd" clip-rule="evenodd" d="M159.78 1.82812H11.952C3.1288 1.82812 1.66016 4.88646 1.66016 12.1598V48.071C1.66016 55.3388 4.68212 58.3378 11.9418 58.3378H159.78C167.045 58.3378 170.174 55.3347 170.174 48.0617V12.1598C170.174 4.88646 167.045 1.82812 159.78 1.82812Z" fill="black"/>
<path d="M84.4525 34.2397C81.3402 34.2397 78.8764 36.5766 78.8764 39.8219C78.8764 42.9376 81.3402 45.4042 84.4525 45.4042C87.5648 45.4042 90.0287 43.0674 90.0287 39.8219C90.0287 36.4466 87.5648 34.2397 84.4525 34.2397ZM84.4525 43.0674C82.7667 43.0674 81.3402 41.6393 81.3402 39.6921C81.3402 37.7447 82.7667 36.3166 84.4525 36.3166C86.1383 36.3166 87.5648 37.615 87.5648 39.6921C87.5648 41.6393 86.1383 43.0674 84.4525 43.0674ZM72.3925 34.2397C69.2803 34.2397 66.8163 36.5766 66.8163 39.8219C66.8163 42.9376 69.2803 45.4042 72.3925 45.4042C75.5048 45.4042 77.9686 43.0674 77.9686 39.8219C77.9686 36.4466 75.5048 34.2397 72.3925 34.2397ZM72.3925 43.0674C70.7066 43.0674 69.2803 41.6393 69.2803 39.6921C69.2803 37.7447 70.7066 36.3166 72.3925 36.3166C74.0783 36.3166 75.5048 37.615 75.5048 39.6921C75.5048 41.6393 74.0783 43.0674 72.3925 43.0674ZM57.9981 35.9274V38.2641H63.5744C63.4447 39.5625 62.926 40.6011 62.2776 41.2501C61.4996 42.0291 60.2028 42.9376 57.9981 42.9376C54.4969 42.9376 51.9034 40.2115 51.9034 36.7062C51.9034 33.2011 54.6265 30.475 57.9981 30.475C59.8138 30.475 61.2401 31.254 62.2776 32.1625L63.9634 30.475C62.5369 29.1766 60.7214 28.1382 58.1278 28.1382C53.4595 28.1382 49.4395 32.0329 49.4395 36.7062C49.4395 41.3797 53.4594 45.2746 58.1278 45.2746C60.7214 45.2746 62.5369 44.4954 64.093 42.8078C65.6492 41.2501 66.168 39.0432 66.168 37.3554C66.168 36.836 66.168 36.3168 66.0383 35.9274H57.9981ZM116.872 37.7448C116.353 36.4466 115.056 34.2397 112.204 34.2397C109.351 34.2397 107.017 36.4466 107.017 39.8219C107.017 42.9376 109.351 45.4042 112.463 45.4042C114.927 45.4042 116.483 43.8464 117.002 42.9376L115.186 41.6393C114.538 42.5482 113.76 43.1972 112.463 43.1972C111.166 43.1972 110.388 42.678 109.74 41.5095L117.131 38.3939L116.872 37.7448ZM109.351 39.5623C109.351 37.4852 111.037 36.3168 112.204 36.3168C113.111 36.3168 114.019 36.836 114.279 37.4852L109.351 39.5623ZM103.256 44.8848H105.72V28.6574H103.256V44.8848ZM99.3655 35.408C98.7171 34.759 97.6797 34.1098 96.3829 34.1098C93.6596 34.1098 91.066 36.5764 91.066 39.6921C91.066 42.8076 93.53 45.1446 96.3829 45.1446C97.6797 45.1446 98.7171 44.4954 99.2359 43.8462H99.3655V44.6252C99.3655 46.7025 98.1984 47.8707 96.3829 47.8707C94.9565 47.8707 93.919 46.8323 93.6597 45.9233L91.5849 46.8323C92.2332 48.2603 93.7893 50.0776 96.5128 50.0776C99.3657 50.0776 101.7 48.3901 101.7 44.3654V34.4993H99.3655V35.408ZM96.5126 43.0674C94.8268 43.0674 93.4003 41.6393 93.4003 39.6921C93.4003 37.7447 94.8268 36.3166 96.5126 36.3166C98.1982 36.3166 99.4952 37.7447 99.4952 39.6921C99.4952 41.6393 98.1984 43.0674 96.5126 43.0674ZM128.154 28.6574H122.318V44.8848H124.782V38.7835H128.154C130.877 38.7835 133.471 36.836 133.471 33.7203C133.471 30.6047 130.877 28.6574 128.154 28.6574ZM128.284 36.4466H124.782V30.8644H128.284C130.099 30.8644 131.137 32.4223 131.137 33.5904C131.007 35.0186 129.969 36.4466 128.284 36.4466ZM143.197 34.1099C141.381 34.1099 139.566 34.8889 138.917 36.5766L141.122 37.4854C141.641 36.5766 142.419 36.317 143.326 36.317C144.623 36.317 145.79 37.0961 145.92 38.394V38.5238C145.531 38.2641 144.493 37.8748 143.456 37.8748C141.122 37.8748 138.788 39.1732 138.788 41.5097C138.788 43.7167 140.733 45.1448 142.808 45.1448C144.493 45.1448 145.272 44.3656 145.92 43.5869H146.05V44.885H148.384V38.6538C148.125 35.7976 145.92 34.1099 143.197 34.1099ZM142.937 43.0674C142.159 43.0674 140.992 42.678 140.992 41.6393C140.992 40.3411 142.419 39.9517 143.586 39.9517C144.623 39.9517 145.142 40.2115 145.79 40.4711C145.531 42.0289 144.234 43.0674 142.937 43.0674ZM156.553 34.4993L153.83 41.5095H153.701L150.848 34.4993H148.254L152.534 44.3654L150.07 49.8181H152.534L159.147 34.4993H156.553ZM134.768 44.8848H137.232V28.6574H134.768V44.8848Z" fill="white"/>
<path d="M53.9611 19.0183H58.0015C58.0246 19.1105 58.0435 19.2219 58.0591 19.3525C58.0742 19.4832 58.082 19.6138 58.082 19.7443C58.082 20.2745 58.0015 20.7739 57.8403 21.2423C57.6792 21.711 57.4259 22.1297 57.0806 22.4983C56.7123 22.8902 56.2709 23.1939 55.7569 23.4088C55.2427 23.6237 54.6556 23.7314 53.9957 23.7314C53.3972 23.7314 52.833 23.6237 52.3036 23.4088C51.7741 23.1939 51.3136 22.8942 50.9223 22.5099C50.5308 22.1258 50.2201 21.6706 49.9899 21.1444C49.7596 20.6182 49.6445 20.044 49.6445 19.4217C49.6445 18.7994 49.7596 18.2252 49.9899 17.699C50.2201 17.1728 50.5308 16.7175 50.9223 16.3333C51.3136 15.9493 51.7741 15.6497 52.3036 15.4346C52.833 15.2195 53.3972 15.1118 53.9957 15.1118C54.6633 15.1118 55.26 15.227 55.7856 15.4575C56.3112 15.688 56.7621 16.0068 57.1382 16.414L56.0677 17.4626C55.7989 17.1786 55.4997 16.9613 55.1698 16.8116C54.8397 16.6617 54.4446 16.5869 53.9842 16.5869C53.6082 16.5869 53.2512 16.6542 52.9135 16.7885C52.5758 16.923 52.2805 17.1131 52.0273 17.3589C51.7741 17.6049 51.5726 17.9026 51.423 18.2519C51.2734 18.6016 51.1985 18.9915 51.1985 19.4217C51.1985 19.852 51.2734 20.2417 51.423 20.5913C51.5726 20.941 51.7758 21.2385 52.0331 21.4843C52.2901 21.7303 52.5875 21.9204 52.9252 22.0549C53.2627 22.1893 53.6233 22.2565 54.0071 22.2565C54.4446 22.2565 54.8148 22.1932 55.118 22.0663C55.421 21.9395 55.6802 21.7765 55.895 21.5765C56.0484 21.4382 56.1807 21.2636 56.2921 21.0522C56.4032 20.8411 56.4895 20.6047 56.5511 20.3435H53.9611V19.0183Z" fill="white"/>
<path d="M60.9251 16.7715V18.6843H64.2286V20.1594H60.9251V22.0724H64.597V23.5473H59.3711V15.2964H64.597V16.7715H60.9251Z" fill="white"/>
<path d="M67.7749 23.5473V16.7715H65.4727V15.2964H71.6311V16.7715H69.3289V23.5473H67.7749Z" fill="white"/>
<path d="M76.8216 15.2964H75.2676V23.5473H76.8216V15.2964Z" fill="white"/>
<path d="M80.23 23.5473V16.7715H77.9277V15.2964H84.0862V16.7715H81.784V23.5473H80.23Z" fill="white"/>
<path d="M91.395 23.7315C90.7811 23.7315 90.2113 23.62 89.6856 23.3973C89.1598 23.1746 88.7054 22.8693 88.3216 22.4812C87.9377 22.0933 87.6367 21.6362 87.4181 21.1098C87.1994 20.5838 87.0898 20.0208 87.0898 19.4217C87.0898 18.8223 87.1993 18.2597 87.4181 17.7335C87.6369 17.2073 87.9379 16.7503 88.3216 16.3622C88.7054 15.9743 89.1598 15.6689 89.6856 15.4461C90.2113 15.2233 90.7811 15.1118 91.395 15.1118C92.0088 15.1118 92.5788 15.2233 93.1046 15.4461C93.63 15.6689 94.0846 15.9743 94.4686 16.3622C94.8523 16.7503 95.1535 17.2073 95.3721 17.7335C95.5908 18.2597 95.7003 18.8223 95.7003 19.4217C95.7003 20.0208 95.5909 20.5838 95.3721 21.1098C95.1535 21.6362 94.8521 22.0933 94.4686 22.4812C94.0846 22.8693 93.63 23.1746 93.1046 23.3973C92.5788 23.62 92.0088 23.7315 91.395 23.7315ZM91.395 22.2565C91.7789 22.2565 92.1376 22.1873 92.4712 22.049C92.805 21.9108 93.0968 21.7188 93.3461 21.4728C93.5955 21.227 93.7912 20.9295 93.9332 20.5798C94.0751 20.2303 94.1462 19.8442 94.1462 19.4217C94.1462 18.9992 94.0751 18.6133 93.9332 18.2636C93.7912 17.914 93.5955 17.6165 93.3461 17.3705C93.0968 17.1247 92.805 16.9326 92.4712 16.7943C92.1375 16.656 91.7787 16.5869 91.395 16.5869C91.0113 16.5869 90.6526 16.656 90.3188 16.7943C89.985 16.9326 89.6933 17.1247 89.4439 17.3705C89.1944 17.6165 88.9988 17.914 88.857 18.2636C88.7149 18.6133 88.644 18.9992 88.644 19.4217C88.644 19.8442 88.7149 20.2303 88.857 20.5798C88.9988 20.9295 89.1944 21.227 89.4439 21.4728C89.6933 21.7188 89.985 21.9108 90.3188 22.049C90.6527 22.1873 91.0113 22.2565 91.395 22.2565Z" fill="white"/>
<path d="M96.9551 15.2964H98.7622L102.077 20.8277H102.17L102.077 19.2374V15.2964H103.62V23.5473H101.985L98.486 17.7049H98.3938L98.486 19.2951V23.5473H96.9551V15.2964Z" fill="white"/>
<path fill-rule="evenodd" clip-rule="evenodd" d="M37.6439 25.1073L17.4727 13.4893L33.4059 29.3575L37.6439 25.1073Z" fill="white"/>
<path fill-rule="evenodd" clip-rule="evenodd" d="M15.6002 13.6074C15.5233 13.7474 15.4395 13.9091 15.4395 14.0873V46.9636C15.4395 47.0667 15.4931 47.1639 15.5206 47.2553L32.3943 30.3331L15.6002 13.6074Z" fill="white"/>
<path fill-rule="evenodd" clip-rule="evenodd" d="M33.4081 31.3052L16.8652 47.8958C16.9135 47.8771 16.9615 47.8554 17.0085 47.8284L37.9107 35.7891L33.4081 31.3052Z" fill="white"/>
<path fill-rule="evenodd" clip-rule="evenodd" d="M45.5501 29.6603L38.8806 25.8188L34.3828 30.3295L39.1497 35.0768L45.5501 31.3904C46.2165 31.0068 46.2165 30.0441 45.5501 29.6603Z" fill="white"/>
</svg>
